# xmcd CD database file
#
# Track frame offsets:
#	150
#	12895
#	34695
#	55277
#	72315
#	88522
#	99820
#	110897
#	131192
#	148200
#	164972
#
# Disc length: 2375 seconds
#
# Revision: 2
# Processed by: cddbd v1.4PL0 Copyright (c) Steve Scherf et al.
# Submitted via: CDex 1.50beta10
#
DISCID=a109450b
DTITLE=Freddie King - Woman Across The River
DYEAR=1996
DGENRE=Blues
TTITLE0=Woman Across The River
TTITLE1=I'm Your Hoochie Coochie Man
TTITLE2=The Danger Zone
TTITLE3=Boogie Man
TTITLE4=Leave My Woman Alone
TTITLE5=Just A Little Bit
TTITLE6=Look On Yonder Wall
TTITLE7=Help Me Through The Day
TTITLE8=I'm Ready
TTITLE9=Trouble In Mind
TTITLE10=You Don't Have To Go
EXTD=YEAR: 1996
EXTT0=
EXTT1=
EXTT2=
EXTT3=
EXTT4=
EXTT5=
EXTT6=
EXTT7=
EXTT8=
EXTT9=
EXTT10=
PLAYORDER=
